<svg xmlns="http://www.w3.org/2000/svg" xmlns:xlink="http://www.w3.org/1999/xlink" width="170" zoomAndPan="magnify" viewBox="0 0 127.5 30.000001" height="40" preserveAspectRatio="xMidYMid meet" version="1.0"><defs><clipPath id="8cc9907d6a"><path d="M 40 21 L 87 21 L 87 25.046875 L 40 25.046875 Z M 40 21 " clip-rule="nonzero"/></clipPath></defs><path fill="#000000" d="M 49.707031 12.609375 C 49.847656 12.589844 49.988281 12.582031 50.132812 12.585938 L 50.554688 12.597656 C 50.8125 12.617188 51.058594 12.578125 51.300781 12.480469 C 51.429688 12.375 51.5 12.234375 51.511719 12.066406 L 51.496094 5.984375 C 51.488281 5.753906 51.382812 5.589844 51.175781 5.488281 C 50.953125 5.414062 50.722656 5.375 50.488281 5.375 C 50.234375 5.367188 49.976562 5.375 49.734375 5.375 L 49.65625 4.859375 L 56.070312 4.851562 L 56.070312 5.390625 C 55.800781 5.363281 55.527344 5.359375 55.257812 5.378906 C 55.015625 5.386719 54.808594 5.476562 54.636719 5.648438 C 54.519531 5.867188 54.476562 6.097656 54.511719 6.339844 L 54.523438 8.472656 L 58.269531 8.472656 L 58.257812 5.890625 C 58.210938 5.664062 58.078125 5.519531 57.855469 5.453125 C 57.523438 5.375 57.183594 5.355469 56.84375 5.394531 L 56.742188 4.867188 L 63.160156 4.84375 L 63.160156 5.351562 C 62.761719 5.414062 62.371094 5.363281 62.027344 5.398438 C 61.867188 5.394531 61.722656 5.4375 61.589844 5.527344 C 61.457031 5.613281 61.359375 5.734375 61.300781 5.882812 L 61.300781 12.152344 C 61.355469 12.386719 61.496094 12.523438 61.734375 12.5625 C 62.230469 12.617188 62.550781 12.570312 63.09375 12.589844 L 63.160156 13.085938 L 56.753906 13.09375 L 56.738281 12.621094 C 57.058594 12.59375 57.390625 12.632812 57.6875 12.609375 C 57.96875 12.628906 58.167969 12.511719 58.285156 12.257812 C 58.320312 11.300781 58.277344 10.304688 58.285156 9.328125 L 54.539062 9.328125 L 54.53125 12.210938 C 54.5625 12.375 54.652344 12.488281 54.808594 12.554688 C 54.996094 12.589844 55.183594 12.601562 55.371094 12.597656 C 55.574219 12.597656 55.777344 12.589844 55.980469 12.597656 C 56.046875 12.667969 56.078125 12.753906 56.066406 12.851562 L 56.054688 13.011719 L 49.632812 13.097656 L 49.628906 12.84375 L 49.628906 12.730469 C 49.632812 12.652344 49.664062 12.625 49.703125 12.621094 M 15.214844 4.832031 C 15.445312 5.347656 15.410156 5.84375 15.109375 6.320312 C 14.757812 6.929688 14.234375 7.300781 13.542969 7.433594 C 12.925781 7.585938 12.328125 7.691406 11.679688 7.800781 L 12.464844 7.910156 C 13.011719 7.972656 13.554688 8.070312 14.089844 8.203125 C 14.578125 8.335938 14.992188 8.582031 15.339844 8.945312 C 15.6875 9.308594 15.917969 9.734375 16.027344 10.226562 C 16.027344 10.679688 15.898438 11.097656 15.636719 11.472656 C 15.378906 11.847656 15.035156 12.121094 14.609375 12.285156 C 13.765625 12.667969 12.875 12.894531 11.949219 12.964844 C 11.019531 13.054688 10.050781 13.046875 9.0625 13.046875 L 2.167969 13.046875 L 2.167969 12.472656 C 2.625 12.4375 3.023438 12.480469 3.398438 12.472656 C 3.75 12.492188 4.074219 12.402344 4.363281 12.199219 C 4.441406 12.074219 4.484375 11.9375 4.492188 11.792969 C 4.507812 11.644531 4.511719 11.492188 4.507812 11.34375 L 4.496094 4.238281 C 4.433594 3.945312 4.257812 3.761719 3.964844 3.683594 C 3.410156 3.609375 2.851562 3.585938 2.292969 3.609375 L 2.214844 2.984375 L 11.207031 3.003906 C 12.695312 3.167969 14.355469 3.410156 15.21875 4.832031 M 9.371094 3.644531 C 9.269531 3.652344 9.152344 3.652344 9.023438 3.652344 C 8.902344 3.652344 8.78125 3.660156 8.660156 3.675781 C 8.433594 3.71875 8.269531 3.808594 8.230469 4.0625 L 8.222656 7.492188 C 8.726562 7.46875 9.308594 7.546875 9.839844 7.503906 C 10.105469 7.511719 10.351562 7.449219 10.578125 7.3125 C 10.808594 7.179688 10.984375 6.992188 11.105469 6.757812 C 11.277344 6.34375 11.355469 5.914062 11.335938 5.46875 C 11.316406 5.019531 11.199219 4.601562 10.988281 4.203125 C 10.785156 3.980469 10.539062 3.816406 10.253906 3.71875 C 9.964844 3.617188 9.671875 3.59375 9.375 3.640625 M 10.550781 8.21875 C 10.328125 8.175781 10.101562 8.152344 9.875 8.148438 C 9.632812 8.140625 9.371094 8.148438 9.105469 8.140625 C 8.804688 8.164062 8.503906 8.167969 8.203125 8.152344 L 8.203125 11.808594 L 8.269531 12.128906 C 8.304688 12.210938 8.363281 12.273438 8.449219 12.304688 C 8.496094 12.328125 8.542969 12.347656 8.589844 12.363281 L 8.734375 12.40625 C 8.984375 12.417969 9.242188 12.4375 9.503906 12.445312 C 9.761719 12.457031 10.019531 12.445312 10.273438 12.414062 C 10.785156 12.378906 11.195312 12.15625 11.503906 11.746094 C 11.714844 11.304688 11.824219 10.835938 11.828125 10.347656 C 11.835938 9.859375 11.734375 9.390625 11.535156 8.945312 C 11.328125 8.539062 11.003906 8.300781 10.554688 8.21875 M 26.90625 12.0625 C 24.964844 13.519531 21.683594 13.574219 19.519531 12.511719 C 19.167969 12.3125 18.855469 12.066406 18.578125 11.773438 C 18.304688 11.480469 18.078125 11.15625 17.898438 10.792969 C 17.722656 10.433594 17.601562 10.054688 17.539062 9.65625 C 17.476562 9.261719 17.472656 8.863281 17.53125 8.464844 C 17.609375 7.734375 17.863281 7.070312 18.300781 6.476562 C 18.738281 5.878906 19.292969 5.433594 19.96875 5.140625 C 22.191406 4.191406 25.3125 4.394531 27.160156 6.03125 C 27.519531 6.402344 27.792969 6.828125 27.992188 7.304688 C 28.148438 7.710938 28.242188 8.128906 28.277344 8.5625 C 28.308594 8.996094 28.277344 9.425781 28.179688 9.847656 C 28.085938 10.273438 27.929688 10.671875 27.710938 11.050781 C 27.496094 11.429688 27.230469 11.765625 26.914062 12.066406 M 21.964844 5.4375 C 21.542969 5.671875 21.28125 6.023438 21.179688 6.492188 C 21.074219 7.101562 21.023438 7.714844 21.023438 8.332031 C 21.015625 8.988281 21.03125 9.660156 21.023438 10.296875 C 21.019531 10.859375 21.125 11.402344 21.347656 11.921875 C 21.59375 12.269531 21.921875 12.496094 22.332031 12.601562 C 22.476562 12.640625 22.621094 12.664062 22.769531 12.667969 C 22.921875 12.671875 23.066406 12.660156 23.214844 12.628906 C 23.359375 12.597656 23.5 12.550781 23.636719 12.488281 C 23.769531 12.421875 23.894531 12.34375 24.007812 12.25 C 24.125 12.152344 24.226562 12.046875 24.316406 11.929688 C 24.40625 11.808594 24.480469 11.679688 24.539062 11.542969 C 24.597656 11.40625 24.640625 11.265625 24.664062 11.117188 C 24.6875 10.972656 24.695312 10.824219 24.683594 10.675781 C 24.726562 9.902344 24.71875 9.484375 24.722656 8.925781 C 24.757812 8.050781 24.6875 7.1875 24.503906 6.332031 C 24.492188 6.277344 24.472656 6.222656 24.445312 6.171875 C 24.414062 6.113281 24.386719 6.050781 24.367188 5.988281 C 24.234375 5.800781 24.074219 5.644531 23.886719 5.515625 C 23.695312 5.386719 23.488281 5.300781 23.265625 5.25 C 23.042969 5.199219 22.816406 5.1875 22.589844 5.222656 C 22.363281 5.253906 22.148438 5.328125 21.949219 5.4375 M 37.402344 4.566406 L 37.410156 7.640625 L 36.71875 7.640625 C 36.558594 7.042969 36.25 6.539062 35.789062 6.125 C 35.328125 5.714844 34.792969 5.460938 34.179688 5.371094 C 33.371094 5.246094 32.332031 5.175781 31.820312 5.808594 C 31.757812 5.972656 31.789062 6.113281 31.90625 6.242188 C 32.148438 6.453125 32.417969 6.625 32.714844 6.753906 C 33.011719 6.890625 33.335938 7 33.730469 7.136719 C 34.148438 7.257812 34.582031 7.375 35.015625 7.507812 C 35.453125 7.636719 35.878906 7.796875 36.289062 7.992188 C 37.171875 8.363281 37.777344 9 38.109375 9.894531 C 38.222656 10.300781 38.226562 10.710938 38.121094 11.117188 C 38.015625 11.527344 37.816406 11.882812 37.519531 12.183594 C 35.945312 13.71875 33.546875 13.371094 31.640625 12.820312 C 31.546875 12.796875 31.453125 12.777344 31.359375 12.761719 C 31.269531 12.75 31.179688 12.753906 31.089844 12.773438 C 30.871094 12.847656 30.707031 12.988281 30.597656 13.191406 L 29.917969 13.210938 L 29.917969 9.472656 L 30.570312 9.507812 C 30.667969 10.199219 30.949219 10.808594 31.410156 11.335938 C 31.871094 11.859375 32.441406 12.21875 33.113281 12.40625 C 34.226562 12.601562 35.625 12.765625 36.328125 11.867188 L 36.421875 11.703125 C 36.433594 11.628906 36.425781 11.554688 36.398438 11.484375 C 36.371094 11.410156 36.335938 11.339844 36.300781 11.273438 C 35.816406 10.921875 35.28125 10.671875 34.699219 10.527344 C 34.113281 10.359375 33.511719 10.234375 32.941406 10.035156 C 31.71875 9.632812 30.109375 8.898438 29.953125 7.351562 C 29.921875 6.925781 29.992188 6.523438 30.167969 6.136719 C 30.339844 5.75 30.597656 5.429688 30.9375 5.175781 C 31.980469 4.546875 33.089844 4.382812 34.269531 4.683594 C 34.566406 4.734375 34.863281 4.796875 35.171875 4.832031 C 35.480469 4.867188 35.789062 4.863281 36.09375 4.816406 L 36.691406 4.558594 Z M 47.527344 4.558594 C 47.726562 4.5625 47.925781 4.558594 48.125 4.539062 L 48.214844 8.375 C 48.015625 8.351562 47.8125 8.347656 47.613281 8.367188 L 47.484375 8.074219 C 47.40625 7.503906 47.195312 6.988281 46.851562 6.527344 C 46.503906 6.0625 46.070312 5.710938 45.546875 5.472656 C 45.195312 5.320312 44.835938 5.304688 44.476562 5.425781 C 44.058594 5.652344 43.730469 5.96875 43.480469 6.367188 C 43.230469 6.769531 43.097656 7.207031 43.082031 7.675781 C 43.03125 8.164062 43.023438 8.65625 43.0625 9.144531 C 43.089844 9.640625 43.144531 10.121094 43.183594 10.566406 C 43.238281 11.226562 43.535156 11.742188 44.078125 12.121094 C 44.496094 12.3125 44.929688 12.378906 45.382812 12.316406 C 45.832031 12.253906 46.234375 12.074219 46.582031 11.78125 C 47.148438 11.300781 47.441406 10.691406 47.464844 9.953125 L 48.394531 9.878906 C 48.359375 10.476562 48.175781 11.023438 47.847656 11.523438 C 47.519531 12.023438 47.085938 12.40625 46.546875 12.675781 C 46.097656 12.882812 45.625 13.03125 45.132812 13.117188 C 44.640625 13.203125 44.148438 13.222656 43.648438 13.179688 C 43.152344 13.132812 42.671875 13.023438 42.203125 12.851562 C 41.734375 12.679688 41.296875 12.453125 40.890625 12.164062 C 40.578125 11.875 40.316406 11.542969 40.101562 11.175781 C 39.886719 10.808594 39.734375 10.417969 39.636719 10.003906 C 39.542969 9.589844 39.507812 9.167969 39.539062 8.746094 C 39.566406 8.320312 39.660156 7.910156 39.8125 7.511719 C 39.96875 7.09375 40.183594 6.707031 40.453125 6.347656 C 40.722656 5.992188 41.039062 5.679688 41.398438 5.414062 C 41.757812 5.148438 42.148438 4.9375 42.570312 4.785156 C 42.992188 4.632812 43.429688 4.542969 43.875 4.515625 C 44.695312 4.46875 45.484375 4.601562 46.242188 4.921875 C 46.734375 5.019531 47.167969 4.894531 47.535156 4.554688 M 75.183594 7.921875 C 75.183594 7.921875 74.746094 7.921875 74.566406 7.929688 C 74.371094 7.335938 74.046875 6.824219 73.59375 6.390625 C 73.140625 5.960938 72.613281 5.660156 72.011719 5.488281 C 71.167969 5.277344 70.324219 5.28125 69.484375 5.496094 C 69.414062 5.578125 69.363281 5.664062 69.320312 5.761719 L 69.320312 8.613281 C 69.722656 8.648438 70.113281 8.589844 70.484375 8.4375 C 70.859375 8.28125 71.175781 8.050781 71.4375 7.746094 C 71.632812 7.484375 71.734375 7.1875 71.738281 6.859375 L 72.441406 6.785156 L 72.441406 11.089844 L 71.726562 11.089844 C 71.730469 10.457031 71.46875 9.960938 70.945312 9.601562 C 70.457031 9.285156 69.921875 9.140625 69.335938 9.171875 L 69.328125 11.6875 L 69.339844 12.0625 C 69.339844 12.152344 69.371094 12.226562 69.433594 12.292969 L 69.632812 12.429688 C 71.316406 12.671875 73.113281 12.4375 74.179688 10.988281 C 74.417969 10.675781 74.597656 10.332031 74.714844 9.960938 L 75.425781 9.902344 L 75.425781 13.085938 L 64.289062 13.085938 L 64.289062 12.5625 C 64.289062 12.5625 65.140625 12.582031 65.519531 12.574219 C 65.902344 12.566406 66.210938 12.472656 66.332031 12.125 L 66.335938 5.789062 C 66.328125 5.699219 66.289062 5.625 66.21875 5.566406 C 66.144531 5.5 66.0625 5.441406 65.972656 5.394531 C 65.726562 5.335938 65.480469 5.304688 65.230469 5.304688 C 64.957031 5.300781 64.679688 5.304688 64.40625 5.300781 L 64.332031 4.769531 L 69.402344 4.765625 L 75.175781 4.765625 C 75.214844 5.851562 75.175781 7.921875 75.175781 7.921875 M 86.234375 10.003906 C 86.199219 9.402344 86.214844 8.78125 86.207031 8.15625 C 86.210938 7.539062 86.15625 6.925781 86.039062 6.316406 C 85.816406 5.605469 84.980469 5.324219 84.234375 5.253906 L 84.164062 4.761719 L 88.824219 4.761719 C 88.824219 4.761719 88.824219 5.054688 88.832031 5.167969 C 88.65625 5.257812 88.46875 5.320312 88.277344 5.355469 C 88.113281 5.390625 87.953125 5.445312 87.800781 5.511719 C 87.476562 5.628906 87.273438 5.855469 87.183594 6.183594 C 87.105469 6.542969 87.0625 6.90625 87.0625 7.277344 L 87.105469 13.246094 L 85.363281 13.226562 L 82.464844 9.984375 C 81.5625 9.03125 80.808594 8.121094 79.898438 7.179688 C 79.863281 8.414062 79.886719 9.652344 79.964844 10.890625 C 79.976562 11.4375 80.210938 11.863281 80.675781 12.160156 C 81.117188 12.425781 81.597656 12.5625 82.117188 12.570312 L 82.195312 13.046875 L 77.273438 13.066406 C 77.265625 12.984375 77.265625 12.898438 77.265625 12.816406 C 77.269531 12.769531 77.261719 12.722656 77.246094 12.679688 L 77.304688 12.570312 C 77.445312 12.542969 77.585938 12.515625 77.730469 12.484375 C 77.871094 12.453125 78.003906 12.410156 78.136719 12.363281 C 78.40625 12.273438 78.621094 12.109375 78.773438 11.871094 C 78.898438 11.652344 78.972656 11.417969 78.996094 11.164062 C 79.027344 10.902344 79.027344 10.628906 79.035156 10.359375 L 79.019531 6.382812 C 78.882812 5.867188 78.566406 5.515625 78.066406 5.328125 L 77.289062 5.28125 L 77.289062 4.761719 C 77.289062 4.761719 80.1875 4.785156 81.507812 4.75 Z M 101.28125 7.550781 C 101.414062 7.929688 101.488281 8.324219 101.5 8.726562 C 101.511719 9.128906 101.464844 9.523438 101.351562 9.914062 C 101.242188 10.300781 101.078125 10.664062 100.855469 11 C 100.632812 11.339844 100.363281 11.632812 100.050781 11.890625 C 98.714844 12.730469 97.257812 13.121094 95.675781 13.0625 L 89.371094 13.0625 L 89.371094 12.550781 C 89.769531 12.519531 90.125 12.558594 90.453125 12.535156 C 90.761719 12.542969 91.015625 12.425781 91.214844 12.1875 L 91.296875 11.765625 L 91.296875 5.894531 C 91.257812 5.667969 91.136719 5.5 90.929688 5.390625 C 90.46875 5.265625 90 5.230469 89.527344 5.277344 L 89.441406 4.742188 L 96.628906 4.753906 C 98.484375 4.902344 100.554688 5.617188 101.285156 7.546875 M 95.878906 5.347656 C 95.589844 5.335938 95.269531 5.34375 95.046875 5.355469 C 94.914062 5.355469 94.78125 5.375 94.648438 5.410156 C 94.511719 5.441406 94.417969 5.519531 94.367188 5.652344 L 94.351562 12.09375 C 94.351562 12.183594 94.378906 12.261719 94.441406 12.328125 C 94.515625 12.382812 94.601562 12.421875 94.691406 12.4375 C 94.769531 12.453125 94.84375 12.453125 94.921875 12.464844 C 95.671875 12.546875 96.398438 12.453125 97.101562 12.1875 C 97.519531 11.953125 97.769531 11.601562 97.859375 11.132812 C 98 10.335938 98.066406 9.535156 98.054688 8.726562 C 98.082031 7.894531 97.984375 7.078125 97.757812 6.277344 C 97.4375 5.523438 96.667969 5.386719 95.878906 5.347656 M 119.609375 4.046875 C 119.28125 4.042969 118.988281 4.132812 118.71875 4.320312 C 118.574219 4.488281 118.507812 4.6875 118.515625 4.910156 L 118.507812 11.820312 C 118.640625 12.214844 119.140625 12.375 119.5625 12.429688 C 119.992188 12.460938 120.414062 12.433594 120.832031 12.339844 C 121.253906 12.25 121.648438 12.097656 122.023438 11.886719 C 122.398438 11.675781 122.734375 11.417969 123.03125 11.109375 C 123.328125 10.796875 123.574219 10.453125 123.765625 10.070312 C 123.832031 9.9375 123.882812 9.800781 123.917969 9.660156 C 123.960938 9.511719 123.996094 9.363281 124.042969 9.21875 C 124.195312 9.160156 124.351562 9.132812 124.511719 9.144531 C 124.652344 9.144531 124.84375 9.160156 124.84375 9.160156 L 124.851562 13.039062 L 107.886719 13.039062 L 107.886719 12.535156 C 108.195312 12.511719 108.480469 12.53125 108.726562 12.507812 C 108.972656 12.484375 109.128906 12.425781 109.1875 12.292969 C 109.195312 12.222656 109.183594 12.15625 109.15625 12.09375 C 109.128906 12.015625 109.085938 11.941406 109.058594 11.855469 C 108.882812 11.457031 108.6875 11.066406 108.472656 10.6875 L 104.632812 10.6875 C 104.582031 10.777344 104.523438 10.871094 104.46875 10.964844 C 104.410156 11.070312 104.359375 11.183594 104.316406 11.296875 C 104.222656 11.53125 104.238281 11.753906 104.363281 11.972656 C 104.5625 12.207031 104.8125 12.355469 105.117188 12.414062 C 105.273438 12.453125 105.433594 12.480469 105.59375 12.492188 C 105.757812 12.507812 105.925781 12.519531 106.09375 12.527344 L 106.167969 13.039062 L 101.332031 13.027344 C 101.332031 13.027344 101.332031 12.734375 101.324219 12.613281 C 101.753906 12.589844 102.15625 12.46875 102.53125 12.257812 C 102.90625 12.046875 103.21875 11.765625 103.460938 11.410156 L 107.070312 4.675781 L 108.488281 4.6875 L 112 11.707031 C 112.125 11.945312 112.300781 12.136719 112.53125 12.273438 C 112.761719 12.410156 113.011719 12.476562 113.28125 12.472656 C 113.679688 12.492188 114.074219 12.488281 114.472656 12.457031 C 114.664062 12.433594 114.820312 12.34375 114.945312 12.199219 C 115.050781 12.035156 115.101562 11.855469 115.097656 11.660156 C 115.109375 11.449219 115.089844 11.226562 115.105469 11.015625 L 115.105469 4.675781 C 115.066406 4.476562 114.960938 4.324219 114.785156 4.21875 C 114.527344 4.113281 114.261719 4.0625 113.984375 4.0625 C 113.695312 4.054688 113.398438 4.074219 113.070312 4.0625 C 113.015625 3.863281 112.992188 3.664062 113.003906 3.457031 L 120.730469 3.457031 L 120.730469 4.035156 C 120.328125 4.058594 119.957031 4.03125 119.609375 4.046875 M 107.949219 9.945312 L 106.511719 7.039062 L 104.960938 9.941406 Z M 107.949219 9.945312 " fill-opacity="1" fill-rule="nonzero"/><g clip-path="url(#8cc9907d6a)"><path fill="#000000" d="M 40.351562 21.347656 C 40.351562 21.277344 40.386719 21.246094 40.453125 21.246094 L 42.640625 21.246094 C 42.707031 21.246094 42.742188 21.277344 42.742188 21.347656 L 42.742188 21.785156 C 42.742188 21.851562 42.707031 21.886719 42.640625 21.886719 L 41.050781 21.886719 L 41.050781 22.894531 L 42.378906 22.894531 C 42.441406 22.894531 42.476562 22.929688 42.480469 22.996094 L 42.480469 23.433594 C 42.476562 23.5 42.441406 23.535156 42.378906 23.535156 L 41.050781 23.535156 L 41.050781 24.890625 C 41.046875 24.953125 41.011719 24.988281 40.949219 24.992188 L 40.453125 24.992188 C 40.386719 24.992188 40.351562 24.957031 40.351562 24.890625 Z M 45.785156 21.191406 C 46.039062 21.191406 46.289062 21.238281 46.523438 21.335938 C 46.761719 21.433594 46.972656 21.570312 47.152344 21.753906 C 47.335938 21.933594 47.476562 22.140625 47.574219 22.375 C 47.671875 22.613281 47.722656 22.859375 47.722656 23.113281 C 47.722656 23.367188 47.675781 23.613281 47.578125 23.851562 C 47.480469 24.085938 47.34375 24.296875 47.160156 24.476562 C 46.980469 24.660156 46.773438 24.800781 46.535156 24.898438 C 46.296875 24.996094 46.050781 25.046875 45.796875 25.046875 C 45.539062 25.046875 45.292969 25 45.054688 24.902344 C 44.816406 24.804688 44.609375 24.667969 44.425781 24.484375 C 44.242188 24.304688 44.105469 24.097656 44.003906 23.863281 C 43.90625 23.625 43.855469 23.378906 43.855469 23.125 C 43.855469 22.867188 43.902344 22.621094 44 22.386719 C 44.097656 22.148438 44.234375 21.941406 44.417969 21.757812 C 44.597656 21.578125 44.804688 21.4375 45.042969 21.339844 C 45.28125 21.242188 45.527344 21.191406 45.785156 21.191406 M 45.785156 24.351562 C 45.949219 24.351562 46.105469 24.320312 46.257812 24.257812 C 46.410156 24.195312 46.542969 24.105469 46.660156 23.992188 C 46.777344 23.875 46.867188 23.742188 46.929688 23.589844 C 46.992188 23.441406 47.023438 23.285156 47.023438 23.121094 C 47.023438 22.957031 46.992188 22.800781 46.929688 22.648438 C 46.867188 22.496094 46.777344 22.363281 46.660156 22.25 C 46.546875 22.132812 46.410156 22.042969 46.261719 21.980469 C 46.109375 21.917969 45.949219 21.886719 45.785156 21.886719 C 45.621094 21.886719 45.464844 21.917969 45.3125 21.980469 C 45.160156 22.046875 45.027344 22.132812 44.914062 22.25 C 44.796875 22.367188 44.707031 22.5 44.644531 22.652344 C 44.582031 22.800781 44.550781 22.960938 44.550781 23.121094 C 44.554688 23.285156 44.585938 23.441406 44.648438 23.589844 C 44.710938 23.742188 44.800781 23.875 44.914062 23.988281 C 45.03125 24.105469 45.164062 24.191406 45.3125 24.253906 C 45.464844 24.316406 45.621094 24.347656 45.785156 24.351562 M 49.109375 21.347656 C 49.113281 21.28125 49.144531 21.246094 49.210938 21.246094 L 49.722656 21.246094 C 49.789062 21.246094 49.824219 21.277344 49.824219 21.347656 L 49.824219 23.535156 C 49.8125 23.761719 49.882812 23.953125 50.035156 24.117188 C 50.1875 24.277344 50.378906 24.359375 50.601562 24.363281 C 50.828125 24.363281 51.015625 24.28125 51.171875 24.121094 C 51.328125 23.957031 51.398438 23.765625 51.386719 23.542969 L 51.386719 21.347656 C 51.386719 21.277344 51.421875 21.246094 51.488281 21.246094 L 52 21.246094 C 52.0625 21.246094 52.097656 21.28125 52.101562 21.347656 L 52.101562 23.570312 C 52.097656 23.765625 52.054688 23.953125 51.976562 24.128906 C 51.898438 24.308594 51.789062 24.46875 51.648438 24.601562 C 51.511719 24.738281 51.351562 24.84375 51.167969 24.917969 C 50.988281 24.992188 50.800781 25.027344 50.605469 25.027344 C 50.410156 25.027344 50.21875 24.992188 50.039062 24.917969 C 49.859375 24.84375 49.699219 24.738281 49.558594 24.601562 C 49.417969 24.46875 49.308594 24.308594 49.230469 24.128906 C 49.152344 23.953125 49.113281 23.765625 49.109375 23.570312 Z M 53.769531 21.289062 C 53.773438 21.222656 53.804688 21.191406 53.871094 21.191406 L 54.003906 21.191406 L 56.238281 23.558594 L 56.242188 23.558594 L 56.242188 21.347656 C 56.242188 21.28125 56.277344 21.246094 56.34375 21.246094 L 56.839844 21.246094 C 56.90625 21.246094 56.9375 21.28125 56.941406 21.347656 L 56.941406 24.953125 C 56.9375 25.015625 56.90625 25.050781 56.839844 25.046875 L 56.710938 25.046875 L 54.464844 22.59375 L 54.460938 22.59375 L 54.460938 24.894531 C 54.457031 24.960938 54.425781 24.996094 54.359375 24.996094 L 53.867188 24.996094 C 53.800781 24.996094 53.769531 24.960938 53.765625 24.894531 Z M 58.664062 21.347656 C 58.664062 21.28125 58.695312 21.246094 58.761719 21.246094 L 60.03125 21.246094 C 60.285156 21.238281 60.527344 21.285156 60.765625 21.375 C 61 21.46875 61.207031 21.605469 61.386719 21.78125 C 61.566406 21.957031 61.707031 22.160156 61.804688 22.394531 C 61.902344 22.625 61.949219 22.867188 61.949219 23.117188 C 61.949219 23.371094 61.902344 23.613281 61.804688 23.84375 C 61.707031 24.078125 61.566406 24.28125 61.386719 24.457031 C 61.207031 24.632812 61 24.765625 60.765625 24.859375 C 60.527344 24.953125 60.285156 24.996094 60.03125 24.992188 L 58.757812 24.992188 C 58.691406 24.988281 58.660156 24.957031 58.660156 24.890625 Z M 59.972656 24.335938 C 60.125 24.324219 60.273438 24.285156 60.410156 24.21875 C 60.550781 24.152344 60.671875 24.058594 60.777344 23.945312 C 60.882812 23.832031 60.964844 23.707031 61.019531 23.5625 C 61.078125 23.417969 61.105469 23.269531 61.105469 23.113281 C 61.105469 22.960938 61.078125 22.8125 61.019531 22.667969 C 60.964844 22.523438 60.882812 22.394531 60.777344 22.28125 C 60.671875 22.167969 60.550781 22.078125 60.410156 22.011719 C 60.273438 21.941406 60.125 21.902344 59.972656 21.890625 L 59.359375 21.890625 L 59.359375 24.335938 Z M 63.371094 21.347656 C 63.371094 21.277344 63.40625 21.246094 63.472656 21.246094 L 65.660156 21.246094 C 65.726562 21.246094 65.761719 21.277344 65.761719 21.347656 L 65.761719 21.785156 C 65.761719 21.851562 65.726562 21.886719 65.660156 21.886719 L 64.066406 21.886719 L 64.066406 22.765625 L 65.398438 22.765625 C 65.460938 22.765625 65.496094 22.800781 65.5 22.867188 L 65.5 23.3125 C 65.5 23.378906 65.464844 23.410156 65.398438 23.414062 L 64.066406 23.414062 L 64.066406 24.351562 L 65.660156 24.351562 C 65.726562 24.351562 65.761719 24.382812 65.761719 24.449219 L 65.761719 24.890625 C 65.761719 24.957031 65.726562 24.992188 65.660156 24.992188 L 63.472656 24.992188 C 63.40625 24.992188 63.371094 24.957031 63.371094 24.890625 Z M 67.269531 21.347656 C 67.269531 21.28125 67.304688 21.246094 67.367188 21.246094 L 68.640625 21.246094 C 68.894531 21.238281 69.136719 21.285156 69.371094 21.375 C 69.609375 21.46875 69.816406 21.605469 69.996094 21.78125 C 70.175781 21.957031 70.316406 22.160156 70.414062 22.394531 C 70.511719 22.625 70.558594 22.867188 70.558594 23.117188 C 70.558594 23.371094 70.511719 23.613281 70.414062 23.84375 C 70.316406 24.078125 70.175781 24.28125 69.996094 24.457031 C 69.816406 24.632812 69.609375 24.765625 69.371094 24.859375 C 69.136719 24.953125 68.894531 24.996094 68.640625 24.992188 L 67.367188 24.992188 C 67.300781 24.988281 67.269531 24.957031 67.269531 24.890625 Z M 68.578125 24.335938 C 68.734375 24.324219 68.878906 24.285156 69.019531 24.21875 C 69.160156 24.152344 69.28125 24.058594 69.386719 23.945312 C 69.492188 23.832031 69.574219 23.707031 69.628906 23.5625 C 69.683594 23.417969 69.714844 23.269531 69.714844 23.113281 C 69.714844 22.960938 69.683594 22.8125 69.628906 22.667969 C 69.574219 22.523438 69.492188 22.394531 69.386719 22.28125 C 69.28125 22.167969 69.160156 22.078125 69.019531 22.011719 C 68.878906 21.941406 68.734375 21.902344 68.578125 21.890625 L 67.964844 21.890625 L 67.964844 24.335938 Z M 74.671875 22.328125 L 74.199219 22.429688 C 74.140625 22.441406 74.105469 22.417969 74.089844 22.359375 L 74.058594 22.097656 C 74.054688 22.058594 74.0625 22.027344 74.085938 22 L 74.859375 21.351562 L 75.234375 21.351562 C 75.300781 21.355469 75.332031 21.390625 75.332031 21.453125 L 75.332031 24.890625 C 75.332031 24.953125 75.300781 24.988281 75.234375 24.992188 L 74.773438 24.992188 C 74.707031 24.988281 74.671875 24.957031 74.671875 24.890625 Z M 78.59375 21.234375 C 78.679688 21.195312 78.730469 21.21875 78.75 21.3125 L 78.871094 21.628906 C 78.898438 21.691406 78.875 21.75 78.773438 21.78125 C 78.226562 21.949219 77.832031 22.289062 77.59375 22.808594 C 77.785156 22.710938 77.992188 22.660156 78.207031 22.65625 C 78.359375 22.65625 78.503906 22.683594 78.644531 22.746094 C 78.785156 22.804688 78.90625 22.890625 79.007812 23 C 79.113281 23.109375 79.191406 23.234375 79.242188 23.378906 C 79.292969 23.519531 79.316406 23.667969 79.304688 23.816406 C 79.304688 23.976562 79.273438 24.132812 79.214844 24.28125 C 79.152344 24.429688 79.066406 24.5625 78.949219 24.679688 C 78.835938 24.792969 78.707031 24.882812 78.558594 24.945312 C 78.410156 25.007812 78.253906 25.042969 78.089844 25.042969 C 77.90625 25.042969 77.726562 25 77.554688 24.921875 C 77.386719 24.84375 77.238281 24.734375 77.117188 24.59375 C 76.996094 24.453125 76.90625 24.292969 76.851562 24.113281 C 76.796875 23.933594 76.78125 23.753906 76.804688 23.566406 C 76.816406 23.027344 76.988281 22.539062 77.316406 22.109375 C 77.648438 21.679688 78.074219 21.386719 78.59375 21.234375 M 78.691406 23.808594 C 78.691406 23.636719 78.632812 23.492188 78.511719 23.367188 C 78.394531 23.246094 78.246094 23.183594 78.074219 23.183594 C 77.933594 23.183594 77.804688 23.226562 77.6875 23.3125 C 77.574219 23.398438 77.496094 23.511719 77.453125 23.648438 C 77.453125 24.011719 77.644531 24.433594 78.082031 24.433594 C 78.253906 24.429688 78.398438 24.367188 78.519531 24.246094 C 78.636719 24.125 78.699219 23.976562 78.695312 23.808594 M 81.113281 23.125 L 81.113281 23.109375 C 80.773438 22.9375 80.585938 22.660156 80.5625 22.277344 C 80.613281 21.996094 80.75 21.761719 80.972656 21.578125 C 81.195312 21.390625 81.449219 21.300781 81.738281 21.300781 C 82.027344 21.300781 82.28125 21.390625 82.503906 21.578125 C 82.726562 21.761719 82.863281 21.996094 82.914062 22.277344 C 82.882812 22.652344 82.695312 22.929688 82.359375 23.101562 L 82.359375 23.125 C 82.75 23.296875 82.96875 23.59375 83.011719 24.019531 C 83.011719 24.601562 82.515625 25.046875 81.726562 25.046875 C 80.957031 25.046875 80.464844 24.601562 80.464844 24.019531 C 80.523438 23.609375 80.742188 23.308594 81.113281 23.125 M 81.738281 24.5 C 81.882812 24.511719 82.011719 24.46875 82.121094 24.371094 C 82.230469 24.273438 82.289062 24.152344 82.296875 24.007812 C 82.300781 23.851562 82.25 23.714844 82.140625 23.601562 C 82.03125 23.488281 81.894531 23.429688 81.738281 23.429688 C 81.578125 23.429688 81.445312 23.488281 81.335938 23.601562 C 81.226562 23.714844 81.171875 23.851562 81.179688 24.007812 C 81.1875 24.152344 81.246094 24.273438 81.355469 24.371094 C 81.464844 24.464844 81.59375 24.511719 81.738281 24.5 M 82.226562 22.304688 C 82.222656 22.171875 82.171875 22.0625 82.070312 21.972656 C 81.972656 21.882812 81.859375 21.84375 81.726562 21.851562 C 81.597656 21.847656 81.484375 21.890625 81.394531 21.980469 C 81.300781 22.070312 81.25 22.175781 81.25 22.304688 C 81.25 22.546875 81.402344 22.734375 81.738281 22.816406 C 82.070312 22.738281 82.226562 22.535156 82.226562 22.304688 M 84.296875 24.421875 L 84.5625 24.15625 C 84.605469 24.117188 84.648438 24.113281 84.691406 24.152344 C 84.890625 24.332031 85.121094 24.429688 85.386719 24.453125 C 85.558594 24.453125 85.707031 24.390625 85.832031 24.265625 C 85.953125 24.144531 86.011719 23.996094 86.007812 23.820312 C 86.015625 23.644531 85.953125 23.496094 85.820312 23.375 C 85.691406 23.253906 85.535156 23.203125 85.359375 23.21875 L 84.53125 23.21875 C 84.414062 23.210938 84.359375 23.148438 84.367188 23.035156 L 84.367188 21.453125 C 84.367188 21.386719 84.398438 21.351562 84.46875 21.351562 L 86.164062 21.351562 C 86.234375 21.351562 86.265625 21.386719 86.265625 21.453125 L 86.265625 21.820312 C 86.269531 21.890625 86.234375 21.921875 86.164062 21.921875 L 84.972656 21.921875 L 84.972656 22.636719 L 85.433594 22.636719 C 85.597656 22.621094 85.757812 22.640625 85.914062 22.699219 C 86.066406 22.753906 86.203125 22.835938 86.320312 22.949219 C 86.441406 23.066406 86.527344 23.199219 86.589844 23.351562 C 86.648438 23.503906 86.675781 23.660156 86.667969 23.824219 C 86.664062 23.992188 86.628906 24.152344 86.558594 24.304688 C 86.492188 24.460938 86.398438 24.59375 86.273438 24.707031 C 86.152344 24.824219 86.011719 24.910156 85.855469 24.972656 C 85.699219 25.03125 85.535156 25.058594 85.367188 25.050781 C 84.945312 25.066406 84.59375 24.917969 84.308594 24.609375 C 84.238281 24.527344 84.230469 24.488281 84.296875 24.425781 " fill-opacity="1" fill-rule="nonzero"/></g></svg>